<svg preserveAspectRatio="none" width="100%" height="100%" overflow="visible" style="display: block;" viewBox="0 0 420 409.639" fill="none" xmlns="http://www.w3.org/2000/svg">
<path id="Vector" d="M210 0C93.975 0 0 93.975 0 210C0 302.925 60.1125 381.413 143.587 409.238C154.087 411.075 158.025 404.775 158.025 399.263C158.025 394.275 157.763 377.738 157.763 360.15C105 369.863 91.35 347.287 87.15 335.475C84.7875 329.437 74.55 310.8 65.625 305.812C58.275 301.875 47.775 292.162 65.3625 291.9C81.9 291.637 93.7125 307.125 97.65 313.425C116.55 345.187 146.738 336.263 158.813 330.75C160.65 317.1 166.162 307.912 172.2 302.662C125.475 297.412 76.65 279.3 76.65 198.975C76.65 176.137 84.7875 157.237 98.175 142.537C96.075 137.287 88.725 115.762 100.275 86.8875C100.275 86.8875 117.863 81.375 158.025 108.413C174.825 103.688 192.675 101.325 210.525 101.325C228.375 101.325 246.225 103.688 263.025 108.413C303.188 81.1125 320.775 86.8875 320.775 86.8875C332.325 115.762 324.975 137.287 322.875 142.537C336.263 157.237 344.4 175.875 344.4 198.975C344.4 279.562 295.313 297.412 248.588 302.662C256.2 309.225 262.763 321.825 262.763 341.513C262.763 369.6 262.5 392.175 262.5 399.263C262.5 404.775 266.438 411.338 276.938 409.238C318.626 395.164 354.852 368.371 380.516 332.63C406.179 296.889 419.989 254 420 210C420 93.975 326.025 0 210 0Z" fill="var(--fill-0, white)"/>
</svg>
