<svg preserveAspectRatio="none" width="100%" height="100%" overflow="visible" style="display: block;" viewBox="0 0 401.25 401.25" fill="none" xmlns="http://www.w3.org/2000/svg">
<g id="instagram">
<path d="M341.062 90.2812C341.062 106.902 327.589 120.375 310.969 120.375C294.348 120.375 280.875 106.902 280.875 90.2812C280.875 73.6609 294.348 60.1875 310.969 60.1875C327.589 60.1875 341.062 73.6609 341.062 90.2812Z" fill="var(--fill-0, white)"/>
<path fill-rule="evenodd" clip-rule="evenodd" d="M200.625 300.938C256.026 300.938 300.938 256.026 300.938 200.625C300.938 145.224 256.026 100.312 200.625 100.312C145.224 100.312 100.312 145.224 100.312 200.625C100.312 256.026 145.224 300.938 200.625 300.938ZM200.625 260.812C233.866 260.812 260.812 233.866 260.812 200.625C260.812 167.384 233.866 140.438 200.625 140.438C167.384 140.438 140.438 167.384 140.438 200.625C140.438 233.866 167.384 260.812 200.625 260.812Z" fill="var(--fill-0, white)"/>
<path fill-rule="evenodd" clip-rule="evenodd" d="M0 192.6C0 125.184 0 91.4755 13.1201 65.7259C24.6608 43.0759 43.0759 24.6608 65.7259 13.1201C91.4755 0 125.184 0 192.6 0H208.65C276.066 0 309.774 0 335.524 13.1201C358.174 24.6608 376.589 43.0759 388.13 65.7259C401.25 91.4755 401.25 125.184 401.25 192.6V208.65C401.25 276.066 401.25 309.774 388.13 335.524C376.589 358.174 358.174 376.589 335.524 388.13C309.774 401.25 276.066 401.25 208.65 401.25H192.6C125.184 401.25 91.4755 401.25 65.7259 388.13C43.0759 376.589 24.6608 358.174 13.1201 335.524C0 309.774 0 276.066 0 208.65V192.6ZM192.6 40.125H208.65C243.02 40.125 266.385 40.1562 284.445 41.6318C302.036 43.069 311.032 45.6742 317.308 48.8717C332.408 56.5656 344.684 68.8423 352.378 83.9423C355.576 90.2178 358.181 99.214 359.618 116.805C361.094 134.865 361.125 158.23 361.125 192.6V208.65C361.125 243.02 361.094 266.385 359.618 284.445C358.181 302.036 355.576 311.032 352.378 317.308C344.684 332.408 332.408 344.684 317.308 352.378C311.032 355.576 302.036 358.181 284.445 359.618C266.385 361.094 243.02 361.125 208.65 361.125H192.6C158.23 361.125 134.865 361.094 116.805 359.618C99.214 358.181 90.2178 355.576 83.9423 352.378C68.8423 344.684 56.5656 332.408 48.8717 317.308C45.6742 311.032 43.069 302.036 41.6318 284.445C40.1562 266.385 40.125 243.02 40.125 208.65V192.6C40.125 158.23 40.1562 134.865 41.6318 116.805C43.069 99.214 45.6742 90.2178 48.8717 83.9423C56.5656 68.8423 68.8423 56.5656 83.9423 48.8717C90.2178 45.6742 99.214 43.069 116.805 41.6318C134.865 40.1562 158.23 40.125 192.6 40.125Z" fill="var(--fill-0, white)"/>
</g>
</svg>
